<?xml version="1.0" encoding="utf-8"?>
<!-- Generator: Adobe Illustrator 25.0.0, SVG Export Plug-In . SVG Version: 6.00 Build 0)  -->
<svg version="1.1" id="Layer_1" xmlns="http://www.w3.org/2000/svg" xmlns:xlink="http://www.w3.org/1999/xlink" x="0px" y="0px"
	 viewBox="0 0 1760 519" style="enable-background:new 0 0 1760 519;" xml:space="preserve">
<style type="text/css">
	.st0{fill:#1A1A42;}
	.st1{fill:#8C2042;}
</style>
<path class="st0" d="M74.76,212.72c12.02-23.19,29.2-41.21,51.54-54.09c22.34-12.87,48.64-19.3,78.9-19.3
	c26.02,0,49.27,4.88,69.78,14.64c20.5,9.76,37.18,23.54,50.06,41.36c12.87,17.82,21.42,38.6,25.67,62.36h-99.27
	c-4.53-9.9-10.96-17.6-19.3-23.12c-8.35-5.51-17.89-8.27-28.63-8.27c-15.84,0-28.36,5.94-37.54,17.82
	c-9.19,11.88-13.79,27.86-13.79,47.94c0,20.08,4.59,36.06,13.79,47.94c9.19,11.88,21.7,17.82,37.54,17.82
	c10.74,0,20.29-2.76,28.63-8.27c8.34-5.51,14.77-13.22,19.3-23.12h99.27c-4.24,23.76-12.8,44.54-25.67,62.36
	c-12.87,17.82-29.56,31.6-50.06,41.36c-20.51,9.76-43.77,14.64-69.78,14.64c-30.26,0-56.57-6.43-78.9-19.3
	c-22.34-12.87-39.52-30.89-51.54-54.09c-12.02-23.19-18.03-49.63-18.03-79.33C56.73,262.35,62.73,235.91,74.76,212.72z"/>
<path class="st0" d="M433.42,430.76c-19.24-9.9-34.29-24.11-45.18-42.63c-10.89-18.52-16.33-40.23-16.33-65.12
	c0-24.88,5.44-46.59,16.33-65.12c10.88-18.52,25.94-32.73,45.18-42.63c19.23-9.9,40.86-14.85,64.9-14.85
	c24.03,0,45.67,4.95,64.9,14.85c19.23,9.9,34.29,24.11,45.18,42.63c10.88,18.53,16.33,40.23,16.33,65.12
	c0,24.89-5.45,46.6-16.33,65.12c-10.89,18.53-25.95,32.74-45.18,42.63c-19.23,9.9-40.87,14.85-64.9,14.85
	C474.28,445.61,452.65,440.66,433.42,430.76z M520.38,353.77c5.94-6.93,8.91-17.18,8.91-30.75c0-13.58-2.97-23.82-8.91-30.76
	c-5.94-6.93-13.3-10.39-22.06-10.39c-8.77,0-16.12,3.47-22.06,10.39c-5.94,6.93-8.91,17.18-8.91,30.76c0,13.57,2.9,23.83,8.7,30.75
	c5.79,6.93,13.22,10.39,22.27,10.39C507.09,364.16,514.45,360.7,520.38,353.77z"/>
<path class="st0" d="M907.68,203.38v239.25h-94.17v-36.48c-7.36,11.31-17.18,20.51-29.48,27.57c-12.3,7.07-26.94,10.61-43.91,10.61
	c-27.43,0-48.86-9.19-64.27-27.57c-15.42-18.38-23.12-43.27-23.12-74.66V203.38h93.75v126.84c0,11.31,3.04,20.3,9.12,26.94
	c6.08,6.65,14.21,9.97,24.39,9.97c10.46,0,18.67-3.32,24.6-9.97c5.94-6.64,8.91-15.62,8.91-26.94V203.38H907.68z"/>
<path class="st0" d="M1079.48,214.2c13.85-8.34,28.28-12.51,43.27-12.51v100.54h-26.73c-17.82,0-30.9,3.12-39.24,9.33
	c-8.34,6.22-12.51,17.25-12.51,33.09v97.99H950.1V203.38h94.17v44.12C1053.89,233.65,1065.62,222.55,1079.48,214.2z"/>
<path class="st0" d="M1242.38,203.38v239.25h-94.17V203.38H1242.38z"/>
<path class="st0" d="M1515.14,339.56H1363.7c1.41,20.65,10.04,30.97,25.88,30.97c10.18,0,17.53-4.67,22.06-14h99.69
	c-3.39,16.97-10.54,32.17-21.42,45.6c-10.89,13.44-24.6,24.04-41.15,31.82c-16.54,7.78-34.72,11.67-54.51,11.67
	c-23.75,0-44.9-4.95-63.42-14.85c-18.53-9.9-32.95-24.11-43.27-42.63c-10.33-18.52-15.48-40.23-15.48-65.12
	c0-24.88,5.16-46.59,15.48-65.12c10.32-18.52,24.74-32.73,43.27-42.63c18.52-9.9,39.66-14.85,63.42-14.85
	c23.76,0,44.89,4.88,63.42,14.64c18.52,9.76,32.94,23.69,43.27,41.78c10.32,18.1,15.48,39.45,15.48,64.06
	C1516.41,327.4,1515.99,333.62,1515.14,339.56z M1420.97,298.41c0-7.91-2.54-13.93-7.64-18.03c-5.09-4.1-11.45-6.15-19.09-6.15
	c-16.69,0-26.45,8.06-29.27,24.18H1420.97z"/>
<path class="st0" d="M1675.49,214.2c13.85-8.34,28.28-12.51,43.27-12.51v100.54h-26.73c-17.82,0-30.9,3.12-39.24,9.33
	c-8.34,6.22-12.51,17.25-12.51,33.09v97.99h-94.17V203.38h94.17v44.12C1649.89,233.65,1661.63,222.55,1675.49,214.2z"/>
<ellipse class="st1" cx="1195" cy="126.5" rx="53" ry="44.5"/>
</svg>
